<svg xmlns="http://www.w3.org/2000/svg" width="145" height="36" viewBox="0 0 145 36" fill="none"><path d="M23.3313 30.36C20.8848 33.84 16.8868 35.82 12.6502 35.7C5.37035 35.7 0.0596504 30.24 0.0596504 23.4C0.0596504 16.56 5.54936 11.1 12.7099 11.1C16.5288 11.04 20.1687 12.84 22.6152 15.84L18.1399 19.8C16.8868 18.06 14.858 16.98 12.7099 16.98C9.24895 16.98 6.38475 19.74 6.38475 23.28V23.46C6.26541 26.88 8.9506 29.76 12.4115 29.88H12.8889C15.1564 29.82 17.2448 28.68 18.4979 26.76L23.3313 30.36Z" fill="#44454B"></path><path d="M47.9156 35.22H41.8292V33.3C40.0391 34.86 37.7119 35.7 35.2654 35.7C31.8642 35.7 28.642 34.26 26.3745 31.68C24.4054 29.34 23.3313 26.46 23.391 23.4C23.391 16.44 28.5226 11.1 34.9074 11.1C37.4136 11.04 39.8601 11.94 41.7695 13.5V11.58H47.7963L47.9156 35.22ZM41.5905 19.86C40.2181 18 38.07 16.92 35.8025 16.92C32.1029 16.92 29.7757 19.98 29.7757 23.4C29.6564 26.82 32.2819 29.7 35.6831 29.82H35.9815C38.249 29.82 40.3375 28.74 41.6502 26.88L41.5905 19.86Z" fill="#44454B"></path><path d="M65.5782 17.16C64.8621 16.98 64.0864 16.92 63.3107 16.92C60.9835 17.04 58.7757 18.3 57.5823 20.34V35.22H51.2572V11.58H57.3436V13.98C58.7757 12.24 61.3416 11.1 64.1461 11.1C64.8621 11.1 65.5782 11.16 66.2942 11.28L65.5782 17.16Z" fill="#44454B"></path><path d="M75.1852 35.22H68.8601V0.599997H75.1852V35.22Z" fill="#FFA300"></path><path d="M90.3416 11.1C97.0844 10.98 102.693 16.32 102.813 23.16V23.46C102.813 30.3 97.4424 35.76 90.3416 35.76C83.2407 35.76 77.8704 30.3 77.8704 23.46C77.8704 16.68 83.3004 11.16 90.1029 11.16C90.1626 11.1 90.2819 11.1 90.3416 11.1ZM90.3416 29.82C94.0412 29.82 96.5473 26.94 96.5473 23.4C96.5473 19.86 94.0412 16.92 90.3416 16.92C86.642 16.92 84.1358 19.86 84.1358 23.4C84.1358 26.94 86.7016 29.82 90.3416 29.82Z" fill="#FFA300"></path><path d="M122.385 35.22C121.132 35.58 119.759 35.7 118.446 35.7C114.687 35.7 111.883 34.44 110.331 32.28C109.138 30.66 108.601 28.56 108.601 25.2V16.92H103.171V11.58H108.601V5.1H114.926V11.58H122.444V16.92H114.926V25.92C114.926 27.36 115.165 28.26 115.702 28.92C116.358 29.64 117.372 30.06 118.924 30.06C119.759 30.06 120.654 29.94 121.49 29.82L122.385 35.22Z" fill="#FFA300"></path><path d="M143.986 15.48L132.588 29.88H144.881V35.22H124.115V31.32L135.333 16.92H125.07V11.58H143.986V15.48Z" fill="#FFA300"></path></svg>