<svg xmlns="http://www.w3.org/2000/svg" class="logo" width="364" height="68"><path d="M108.7 58.6h-3.5l-3.6-10.1H86.7L83 58.6h-3.5l13.7-35.2h1.9zm-8.6-13.5-6-15.1-6 15.1zm43.7-11-11.6 26.3-11.6-26.3h3.7l7.9 17.9 7.9-17.9h3.7zm38.9 13.2h-20.8c.6 5.5 3.3 8.3 8.2 8.3a9 9 0 0 0 5.1-1.5 7.6 7.6 0 0 0 3.3-4l3.2 1.8c-2.3 4.8-6.2 7.2-11.6 7.2a12 12 0 0 1-8.9-3.5 12.5 12.5 0 0 1-3.4-9 13.2 13.2 0 0 1 3.4-9.2 11.9 11.9 0 0 1 9-3.6c4 0 7.1 1.3 9.3 3.8s3.1 5.6 3.2 9.7m-3.7-3.5c-1.3-4.3-4.2-6.5-8.8-6.5s-7.3 2.2-8.3 6.5zm38.8-11.3a8.6 8.6 0 0 1-2.9 6.7 10 10 0 0 1-7 2.5h-5.6v16.9h-3.4V23.4h9a10.1 10.1 0 0 1 7 2.4 8.4 8.4 0 0 1 2.9 6.7m-3.4 0a5 5 0 0 0-1.9-4.3 7.1 7.1 0 0 0-4.7-1.4h-5.5v11.5h5.6a6.8 6.8 0 0 0 4.6-1.6 5 5 0 0 0 1.9-4.2m37.4 13.9a12.5 12.5 0 0 1-3.5 9.2 13.8 13.8 0 0 1-18.4 0 12.3 12.3 0 0 1-3.5-9.2 12.1 12.1 0 0 1 3.5-9.1 12.7 12.7 0 0 1 9.2-3.5 12.3 12.3 0 0 1 9.1 3.6 11.9 11.9 0 0 1 3.6 9m-3.7 0a9.3 9.3 0 0 0-2.5-6.6 9.1 9.1 0 0 0-6.5-2.5 8.7 8.7 0 0 0-9 9.1 8.9 8.9 0 0 0 2.5 6.6 8.6 8.6 0 0 0 6.5 2.6 8.7 8.7 0 0 0 6.5-2.6 9.3 9.3 0 0 0 2.5-6.6m25.3 12.3h-3.3v-21h-4.7v-3.4h8zm.8-30.2a2.1 2.1 0 0 1-2.4 2.3c-1.7 0-2.6-.8-2.6-2.4s.8-2.3 2.5-2.3 2.5.8 2.5 2.4m38.5 30.2h-3.3V44.6c0-4.9-2.1-7.3-6.2-7.3a6 6 0 0 0-4.8 2 6.8 6.8 0 0 0-1.8 5v14.4h-3.3V34.1h3.3v2a10 10 0 0 1 6.6-2.3c6.4 0 9.5 3.6 9.5 10.7zm38-3.2a10.1 10.1 0 0 1-7.6 3.2 10.6 10.6 0 0 1-7.7-3.1 10 10 0 0 1-3.1-7.6V37.8H329v-3.4h3.3v-11h3.4v11h5.5v3.4h-5.5V48a7.2 7.2 0 0 0 2.1 5.2 7.1 7.1 0 0 0 5.3 2.2 7.4 7.4 0 0 0 5.2-2.2zm5.8-31.2a2.9 2.9 0 0 1-.9 2.1 2.6 2.6 0 0 1-2.1.9 2.9 2.9 0 0 1-2.1-.9 2.8 2.8 0 0 1-.8-2.1 2.8 2.8 0 0 1 .8-2.1 2.9 2.9 0 0 1 2.1-.9 2.6 2.6 0 0 1 2.1.9 2.9 2.9 0 0 1 .9 2.1m-.7 0a2.5 2.5 0 0 0-.6-1.7 2.5 2.5 0 0 0-1.7-.6 2.3 2.3 0 0 0-1.6.6 2.2 2.2 0 0 0-.7 1.7 2.4 2.4 0 0 0 2.3 2.3 2.2 2.2 0 0 0 1.7-.7 2.3 2.3 0 0 0 .6-1.6m-.7 1.4h-.9l-.8-1.1h-.3v1.1h-.7v-3h1.9l.3.3c.1.1.1.2.1.4a.8.8 0 0 1-.2.5l-.4.3zm-1.2-2.1v-.2h-.8v.9h.5c0-.1.1-.1.2-.1s.1-.1.1-.2v-.2" style="fill:#4c5a66"></path><path d="M22.7 49.2a11 11 0 1 1 15.8 9.9h21.6L33.8 7.6 7.5 59.1H29a11.1 11.1 0 0 1-6.3-9.9M58 16.6a7.7 7.7 0 0 1-15.4 0 7.7 7.7 0 0 1 15.4 0" style="fill:#ee3f2d;fill-rule:evenodd"></path></svg>